# xmcd
#
# Track frame offsets:
#	150
#	12612
#	26957
#	43175
#	58325
#	74572
#	85425
#	98125
#	110810
#	121432
#	135735
#	150425
#
# Disc length: 2566 seconds
#
# Revision: 1
# Processed by: cddbd v1.5.1PL0 Copyright (c) Steve Scherf et al.
# Submitted via: CDex 1.50Beta5
#
DISCID=b50a040c
DTITLE=桃太郎 - ぶったぎり
DYEAR=1994
DGENRE=Rock
TTITLE0=ロックンロールは夜に咲け
TTITLE1=弋とカラスのRock’n Roll
TTITLE2=ペケジェイロックンロール
TTITLE3=湘南デイズ
TTITLE4=太陽をぶっとばせ
TTITLE5=100万カラットのキス
TTITLE6=台風ボーイ
TTITLE7=ヒーローは似合わねえ
TTITLE8=楽園の扉を叩け
TTITLE9=材木座ソリチュード
TTITLE10=烈風愚連隊
TTITLE11=年少恨み節
EXTD=
EXTT0=
EXTT1=
EXTT2=
EXTT3=
EXTT4=
EXTT5=
EXTT6=
EXTT7=
EXTT8=
EXTT9=
EXTT10=
EXTT11=
PLAYORDER=
